# xmcd CD database file
# Copyright (C) 1993-1998 Ti Kan
#
# Track frame offsets:
# 	150
# 	10105
# 	25160
# 	37220
# 	45940
# 	59272
# 	71692
# 	87242
# 	100980
# 	111680
# 	130150
# 	144517
# 	154887
# 	166765
# 	180332
# 	195687
# 	211897
# 	225275
# 	238255
# 	250845
#
# Disc length: 3545 seconds
#
# Revision: 1
# Processed by: cddbd v1.4b41PL1 Copyright (c) Steve Scherf et al.
# Submitted via: DiscPlay 3.4.1
#
DISCID=0d0dd714
DTITLE=Shirley Eikhard - Child of the Present and Horizons
DYEAR=1900
DGENRE=
TTITLE0=To Love
TTITLE1=Sure Thing
TTITLE2=Walk Away
TTITLE3=I Wanna Know
TTITLE4=Play a Little Bit Longer
TTITLE5=Child of the Present
TTITLE6=It Doesn't Matter Anymore
TTITLE7=Best Friend
TTITLE8=Leave the Windows Open
TTITLE9=I Just Wanted to Know
TTITLE10=Don't Let Me Down
TTITLE11=Let me Down Easy
TTITLE12=I Still Believe in Love Songs
TTITLE13=It All Comes Down to Caring
TTITLE14=I Don't Want to Lose Your Love
TTITLE15=Play a Little Bit Longer
TTITLE16=Strangers Now
TTITLE17=Nothing to Lose
TTITLE18=Any Way the Wind Blows
TTITLE19=Some Day Soon
EXTD=
EXTT0=
EXTT1=
EXTT2=
EXTT3=
EXTT4=
EXTT5=
EXTT6=
EXTT7=
EXTT8=
EXTT9=
EXTT10=
EXTT11=
EXTT12=
EXTT13=
EXTT14=
EXTT15=
EXTT16=
EXTT17=
EXTT18=
EXTT19=
PLAYORDER=
